<?xml version="1.0" encoding="utf-8"?>
<svg version="1.1" id="Logo_EPI" xmlns="http://www.w3.org/2000/svg" xmlns:xlink="http://www.w3.org/1999/xlink" x="0px" y="0px"
	 width="131px" height="60px" viewBox="0 0 131 60" enable-background="new 0 0 131 60" xml:space="preserve">
<path id="yello" fill="#FECC07" d="M35.161,0c-7.079,0-14.999,4.693-19.083,10.924c-0.64,0.977-1.186,1.99-1.619,3.03
	c-4.024,9.659-8.046,19.317-12.071,28.974c-0.433,1.04-0.865,2.079-1.299,3.117c-0.627,1.507-0.975,2.963-1.065,4.326
	c-0.186,2.8,0.714,5.217,2.488,6.929C4.27,58.995,6.888,60,10.162,60c26.872,0,38.312,0,65.182,0c8.108,0,16.533,0,24.64,0
	c0.505,0,1.008,0,1.513,0c6.217,0,12.68-3.77,16.454-9.081c1.716-2.414,2.572-5.053,3.396-7.876c0.735-2.511,1.471-5.02,2.206-7.531
	c2.049-6.995,4.097-13.99,6.145-20.984c1.353-4.622,0.324-8.76-2.371-11.422C125.364,1.162,122.518,0,119.065,0
	C117.225,0,37.476,0,35.161,0z"/>
<path id="blue" fill="#0E3252" d="M121.532,2.794C119.683,1.041,116.946,0,113.547,0c-17.575,0-70.74,0-71.965,0
	c-0.886,0-1.805,0.078-2.752,0.227c-5.772,0.911-11.635,4.478-15.337,9.176c-1.708,2.167-2.722,4.575-3.733,7.113
	c-2.421,6.071-4.84,12.145-7.262,18.215c-0.339,0.849-0.588,1.679-0.754,2.488c-0.744,3.622,0.196,6.779,2.427,8.897
	c1.849,1.753,4.585,2.794,7.984,2.794c3.293,0,6.587,0,9.878,0c26.131,0,37.943,0,63.31,0c0.609,0,1.233-0.035,1.869-0.104
	c6.063-0.657,12.361-4.35,16.26-9.299c1.179-1.494,2.137-3.101,2.803-4.774c0.633-1.589,1.266-3.176,1.9-4.764
	c2.098-5.264,3.606-11.167,5.031-15.792c0.554-1.803,1.019-3.434,1.005-4.986C124.182,6.625,123.231,4.408,121.532,2.794z"/>
<path id="e" fill="#FFFFFF" d="M34.593,34.171h11.634c1.918,0,3.472,1.549,3.472,3.459c0,1.912-1.554,3.46-3.472,3.46H34.593
	c-5.522,0-10.016-4.479-10.016-9.982c0-4.334,2.791-8.021,6.672-9.396c-0.447-1.131-0.702-2.358-0.702-3.646
	c0-5.317,4.313-9.981,9.231-9.981h16.061c1.918,0,3.472,1.549,3.472,3.46s-1.554,3.46-3.472,3.46H39.778
	c-0.803,0-2.288,1.263-2.288,3.062c0,1.689,1.378,3.062,3.073,3.062h6.233c1.918,0,3.472,1.549,3.472,3.46
	c0,1.912-1.554,3.46-3.472,3.46H34.593c-1.694,0-3.072,1.373-3.072,3.062C31.521,32.797,32.899,34.171,34.593,34.171z"/>
<path id="p" fill="#FFFFFF" d="M80.345,8.086H67.403c-1.423,0-2.702,0.864-3.227,2.182l-5.175,12.985
	c-0.017,0.039-0.032,0.077-0.047,0.117l-5.176,12.983c-0.707,1.776,0.163,3.788,1.946,4.493c0.42,0.165,0.854,0.245,1.281,0.245
	c1.38,0,2.686-0.827,3.227-2.184l4.328-10.861v0.002h15.786c5.522,0,10.015-4.478,10.015-9.982
	C90.36,12.563,85.866,8.086,80.345,8.086z M80.343,21.128H67.317l2.441-6.124h10.586c1.695,0,3.072,1.373,3.071,3.062
	C83.416,19.754,82.038,21.128,80.343,21.128z"/>
<path id="ii" fill="#FFFFFF" d="M99.572,25.081l-5.509,13.825c-0.541,1.357-1.846,2.184-3.228,2.184
	c-0.426,0-0.861-0.08-1.281-0.245c-1.781-0.705-2.653-2.716-1.946-4.493l5.509-13.824c0.708-1.777,2.726-2.645,4.509-1.939
	C99.408,21.295,100.279,23.306,99.572,25.081z"/>
<path id="i" fill="#FFFFFF" d="M104.716,13.433l-0.523,1.31c-0.541,1.356-1.846,2.182-3.226,2.182c-0.428,0-0.861-0.079-1.282-0.246
	c-1.782-0.706-2.651-2.718-1.943-4.493l0.522-1.31c0.708-1.776,2.728-2.642,4.51-1.936C104.554,9.645,105.425,11.657,104.716,13.433
	z"/>
</svg>
