<?xml version="1.0" encoding="utf-8"?>
<!-- Generator: Adobe Illustrator 17.0.0, SVG Export Plug-In . SVG Version: 6.00 Build 0)  -->
<!DOCTYPE svg PUBLIC "-//W3C//DTD SVG 1.1//EN" "http://www.w3.org/Graphics/SVG/1.1/DTD/svg11.dtd">
<svg version="1.1" xmlns="http://www.w3.org/2000/svg" xmlns:xlink="http://www.w3.org/1999/xlink" x="0px" y="0px" width="500px"
	 height="500px" viewBox="0 0 500 500" enable-background="new 0 0 500 500" xml:space="preserve">
<g id="Layer_1">
	<path fill="#231F20" d="M250.399,81.224c-58.641,0.257-104.865,76.045-104.921,168.715c0.055,92.647,46.28,168.439,104.921,168.695
		c58.647-0.255,104.857-76.048,104.921-168.695C355.256,157.268,309.046,81.481,250.399,81.224z"/>
	<g>
		<path fill="#ED1C24" d="M148.873,249.938L148.873,249.938c-0.009-45.826,11.493-87.314,29.976-117.208l0,0
			c18.508-29.926,43.841-48.122,71.549-48.106l0,0c27.704-0.015,53.035,18.18,71.543,48.106l0,0
			c18.486,29.894,29.985,71.382,29.972,117.208l0,0c0.013,45.816-11.486,87.297-29.972,117.18l0,0
			c-18.508,29.923-43.839,48.124-71.543,48.113l0,0c-27.708,0.011-53.042-18.19-71.549-48.113l0,0
			C160.366,337.235,148.864,295.754,148.873,249.938L148.873,249.938z"/>
	</g>
	<g id="Isolation_Mode">
		<path fill="#FFFFFF" d="M250.399,94.151c-51.897,0.292-92.478,70.307-92.545,155.787c0.067,85.481,40.648,155.495,92.545,155.779
			c51.903-0.284,92.472-70.298,92.538-155.779C342.871,164.458,302.302,94.443,250.399,94.151z"/>
	</g>
	<path fill="#231F20" d="M250.399,94.151c-51.897,0.292-92.478,70.307-92.545,155.787c0.067,85.481,40.648,155.495,92.545,155.779
		c51.903-0.284,92.472-70.298,92.538-155.779C342.871,164.458,302.302,94.443,250.399,94.151z M275.58,262.984l-0.02,67.966v0.852
		c-6.524,1.988-13.341,3.329-20.425,3.717v-72.566L275.58,262.984z M255.135,234.077V164.36c7.088,0.385,13.91,1.715,20.44,3.714
		v0.75l-0.011,65.254L255.135,234.077L255.135,234.077z M334.731,234.077l-27.193,0.016l-0.018-48.102
		C321.371,198.334,331.182,215.083,334.731,234.077z M307.531,262.971h27.617c-3.082,20.134-13.088,37.954-27.617,50.896V262.971z
		 M250.35,102.204c0,0.008,0,0.008,0,0.008c0.036,0,0.071-0.008,0.111-0.008c23.141,0.008,44.23,16.407,59.551,43.137
		c9.625,16.777,16.832,37.679,20.947,60.97c-11.575-21.287-31.343-37.476-55.079-44.351l-0.299-0.125v0.059
		c-8.009-2.288-16.433-3.588-25.178-3.588c-34.798,0-65.059,19.403-80.581,47.976c4.112-23.288,11.351-44.171,20.982-60.94
		C206.114,118.63,227.2,102.224,250.35,102.204z M250.856,397.624l-0.009,0.007h-0.426l-0.044-0.007
		c-23.163-0.011-44.263-16.417-59.575-43.129c-9.6-16.737-16.817-37.592-20.935-60.829c15.521,28.52,45.768,47.894,80.535,47.894
		c34.765,0,65.005-19.367,80.533-47.894c-4.121,23.23-11.324,44.092-20.922,60.829C294.782,381.061,273.846,397.427,250.856,397.624
		z"/>
	<path fill="#231F20" d="M230.289,374.268c-7.769-1.371-9.635-6.491-8.974-10.275c0.249-1.389,0.888-5.068,5.808-6.191
		c-2.182-1.509-3.145-3.491-2.696-6.067c0.828-4.72,5.428-6.822,10.692-5.894c6.24,1.123,8.961,5.097,8.293,8.916
		c-0.41,2.374-1.824,4.216-4.449,4.944c2.658,1.855,3.968,3.897,3.338,7.465C241.686,370.677,238.274,375.697,230.289,374.268
		L230.289,374.268z M237.85,354.362c0.366-2.104-1.198-3.746-3.109-4.094c-2.676-0.473-4.549,0.65-4.913,2.674
		c-0.275,1.633,0.954,3.706,3.511,4.154C235.668,357.518,237.495,356.351,237.85,354.362L237.85,354.362z M232.486,361.213
		c-2.161-0.393-4.913,0.446-5.43,3.442c-0.471,2.652,1.329,4.78,4.05,5.262c3.087,0.544,4.984-1.645,5.317-3.548
		C236.769,364.406,235.795,361.792,232.486,361.213L232.486,361.213z"/>
	<path fill="#231F20" d="M282.754,364.277l0.002,0.031c1.338,1.598,3.375,2.148,5.581,1.056c2.246-1.136,4.106-3.444,2.255-8.983
		l-0.109-0.06c-0.699,2.248-2.79,3.451-4.747,4.121c-5.539,1.895-10.07-0.821-11.579-5.215c-2.21-6.467,0.961-10.894,6.631-12.849
		c10.026-3.431,13.559,6.351,14.824,10.048c3.493,10.184-0.672,15.303-5.894,17.094c-4.474,1.538-8.542,0.546-10.696-2.656
		L282.754,364.277L282.754,364.277z M285.546,355.867c1.995-0.677,3.757-2.721,2.69-5.854c-1.038-2.998-3.089-4.354-6.047-3.342
		c-1.445,0.49-4.365,2.246-3.074,6.023C280.468,356.648,283.384,356.617,285.546,355.867L285.546,355.867z"/>
	<path fill="#231F20" d="M214.693,340.546c-0.395,1.172-3.883,4.083-8.237,2.592l-0.816-0.284l-1.145,3.313l0.027,0.007
		l-0.553,1.618l1.094,0.379c2.929,1.023,4.929,1.023,6.269,0.519l-6.029,17.678l5.743,1.97l8.876-26.017L214.693,340.546
		L214.693,340.546z"/>
	<path fill="#231F20" d="M254.515,368.558v0.049c0.899,1.853,2.732,2.887,5.155,2.368c2.432-0.533,4.815-2.308,4.376-8.144
		l-0.089-0.069c-1.223,1.971-3.542,2.643-5.601,2.816c-5.841,0.497-9.573-3.251-9.968-7.889c-0.562-6.811,3.613-10.321,9.573-10.818
		c10.565-0.892,11.61,9.438,11.926,13.355c0.883,10.741-4.401,14.66-9.902,15.126c-4.713,0.402-8.419-1.571-9.718-5.199
		L254.515,368.558L254.515,368.558z M259.28,361.095c2.102-0.173,4.305-1.735,4.03-5.011c-0.26-3.167-1.929-4.98-5.015-4.731
		c-1.545,0.129-4.798,1.092-4.474,5.077C254.167,360.607,257.007,361.279,259.28,361.095L259.28,361.095z"/>
	<path fill="#231F20" d="M262.584,140.873c-2.638,2.859-6.409,4.655-10.605,4.655c-7.947,0-14.407-6.458-14.407-14.416
		c0-7.966,6.46-14.425,14.407-14.425c4.196,0,7.967,1.805,10.605,4.653l4.365-4.023c-3.717-4.03-9.05-6.562-14.97-6.562
		c-11.227,0-20.345,9.11-20.345,20.357c0,11.24,9.118,20.351,20.345,20.351c5.936,0,11.291-2.533,15.001-6.594L262.584,140.873
		L262.584,140.873z"/>
	<path fill="#231F20" d="M268.438,153.032l10.148-33.237l4.853,3.253l4.196,19.967l5.033-12.494l3.508,2.808l11.185,37.782
		c-2.359-1.881-4.822-3.646-7.359-5.286l-6.46-21.915l-6.138,15.125c-1.012-0.443-2.037-0.875-3.067-1.294l-4.363-22.755
		l-5.883,19.364C272.226,153.859,270.342,153.415,268.438,153.032z"/>
	<path fill="#231F20" d="M191.967,172.305l23.059-47.818l7.31-4.693l9.993,33.245c-1.871,0.375-3.748,0.81-5.59,1.303l-2.246-7.455
		l-17.687,7.04l-5.665,11.685C197.947,167.652,194.878,169.888,191.967,172.305z M219.014,128.726l-8.464,17.47l12.261-4.878
		L219.014,128.726z"/>
	<path fill="#ED1C24" d="M255.135,258.426V238.6h24.948l0.018-69.068c8.331,3.068,16.005,7.414,22.888,12.761l0.022,56.325
		l32.393-0.019c0.488,3.718,0.834,7.48,0.834,11.337c0,2.879-0.149,5.71-0.424,8.512h-32.808v59.115
		c-6.893,5.353-14.582,9.711-22.924,12.787l0.022-71.894L255.135,258.426z"/>
	<path fill="#ED1C24" d="M239.135,164.951v169.976c-5.521-0.728-10.885-1.964-16.027-3.688V168.638
		C228.25,166.902,233.613,165.668,239.135,164.951z"/>
	<path fill="#ED1C24" d="M207.099,175.944v147.987c-5.796-3.409-11.162-7.441-15.991-12.065V188.013
		C195.937,183.387,201.303,179.345,207.099,175.944z"/>
	<path fill="#ED1C24" d="M164.6,249.938c0-14.908,3.81-28.928,10.499-41.142v82.276C168.41,278.854,164.6,264.846,164.6,249.938z"/>
</g>
<g id="Isolation_Mode_1_">
</g>
</svg>
