<?xml version="1.0" encoding="utf-8"?>
<!-- Generator: Adobe Illustrator 17.0.0, SVG Export Plug-In . SVG Version: 6.00 Build 0)  -->
<!DOCTYPE svg PUBLIC "-//W3C//DTD SVG 1.1//EN" "http://www.w3.org/Graphics/SVG/1.1/DTD/svg11.dtd">
<svg version="1.1" id="Layer_1" xmlns="http://www.w3.org/2000/svg" xmlns:xlink="http://www.w3.org/1999/xlink" x="0px" y="0px"
	 width="500px" height="500px" viewBox="0 0 500 500" enable-background="new 0 0 500 500" xml:space="preserve">
<path id="dj" inkscape:connector-curvature="0" d="M167.099,131.385c-10.562,0-18.887,1.948-26.43,3.667v118.05
	c11.789-10.659,25.167-18.953,39.219-24.793v-21.912h-9.363V169.36c38.936,0,72.121,26.753,82.803,61.982
	c10.856,0.306,20.589,1.886,30.62,4.627C277.785,184.616,234.104,131.385,167.099,131.385L167.099,131.385z M248.658,238.391
	c-55.559,0-116.719,44.148-116.719,124.205c13.18,4.784,20.61,5.805,36.295,5.805c65.395,0,103.643-47.208,113.751-94.741
	c-5.631-0.887-11.193-1.331-16.587-1.331c-2.331,0-4.729,0.064-7.202,0.218c0,30.872-36.256,79.168-87.757,80.337
	c6.674-69.749,58.941-88.303,91.446-88.303c40.167,0,92.166,31.825,92.166,96.422h14.012
	C368.061,286.455,314.044,238.391,248.658,238.391L248.658,238.391z"/>
</svg>
