<?xml version="1.0" encoding="utf-8"?>
<!-- Generator: Adobe Illustrator 17.0.0, SVG Export Plug-In . SVG Version: 6.00 Build 0)  -->
<!DOCTYPE svg PUBLIC "-//W3C//DTD SVG 1.1//EN" "http://www.w3.org/Graphics/SVG/1.1/DTD/svg11.dtd">
<svg version="1.1" xmlns="http://www.w3.org/2000/svg" xmlns:xlink="http://www.w3.org/1999/xlink" x="0px" y="0px" width="500px"
	 height="500px" viewBox="0 0 500 500" enable-background="new 0 0 500 500" xml:space="preserve">
<g id="Layer_1">
</g>
<g id="Livello_1">
	<g>
		<g>
			<path fill="#7B6E3E" stroke="#97854D" stroke-width="3" d="M147.143,235.399c0,0,3.911,5.732,4.27,7.922
				c0.354,2.195,1.247,3.059,1.247,3.059s3.207-4.669,4.274-5.929c1.07-1.256,3.553-4.342,4.376-5.061
				c0.819-0.721,2.874-1.385,2.874-1.385s0.218,1.822-0.173,4.376c-0.391,2.557-0.424,4.393-0.632,5.583
				c-0.187,1.05-0.708,3.961-0.924,4.9c-0.21,0.943-0.031,1.19-0.031,1.19s1.281-0.651,2.172-2.705
				c0.894-2.046,1.429-3.162,1.676-3.985c0.251-0.832,2.114-1.758,2.114-1.758s0.879,2.075,0.739,5.171
				c-0.144,3.092,0.14,6.153-0.642,8.71c-0.786,2.553-0.961,3.084-0.323,5.315c0.644,2.232,1.142,2.45,1.072,4.076
				c-0.07,1.618-0.07,4.006,0.037,4.167c0.543,0.811,0.218,0.091,2.804,1.62c0,0,0,6.221-0.169,9.638
				c-0.045,0.968,1.532,1.762,2.141,2.112c0.603,0.362,0.782,0.79,0.782,0.79s-0.037,3.277-0.037,4.681
				c0,1.4-0.037,2.948,0.498,4.673c0.535,1.729,3.815,6.015,5.237,7.16c1.424,1.157,2.672,3.055,4.85,4.352
				c2.178,1.293,9.696,3.018,11.654,4.064c1.96,1.046,4.632,3.197,6.552,5.75c1.929,2.553,3.286,4.607,3.782,4.821
				c0.5,0.214,10.731,8.312,10.731,8.312s-12.38,10.721-15.756,15.831c-2.421,3.666-5.731,8.607-14.114,3.586
				c-1.647-0.986-8.23-5.575-8.942-5.719c-0.714-0.136-4.704-2.479-6.626-2.759c-1.927-0.292-3.638-0.766-5.811-2.672
				c-2.174-1.91-3.638-2.804-5.241-3.096c-1.606-0.28-2.347-0.898-2.635-1.688c-0.284-0.795-0.784-0.679-2.351-0.828
				c-1.569-0.14-2.516-0.93-2.516-0.93s1.089-0.432,1.412-1.626c0.317-1.178-0.963-1.54-2.499-2.985
				c-1.532-1.437-3.957-4.241-5.49-5.826c-1.53-1.577-2.896-2.503-2.896-2.503s0.692-0.115,1.083-0.729
				c0.391-0.613,0.498-0.465-1.356-3.742c-1.855-3.271-5.542-8.87-8.465-14.144c-2.785-5.035-3.485-7.32-4.305-9.264
				c-0.819-1.943-1.456-5.859-1.456-5.859s2.279,0.951,3.456,1.853c1.178,0.897,2.536,1.338,2.536,1.338s0.074-2.693-0.712-6.246
				c-0.786-3.565-1.495-8.21-1.425-10.9c0.07-2.705,1.89-2.886,1.993-4.426c0.109-1.548-0.14-6.184-0.354-8.522
				c-0.214-2.343-0.638-3.343-0.712-4.095c-0.34-3.594-0.004-3.277,0.021-4.377c0,0,2.275,0.585,3.454,3.285
				c0.782,1.789,1.692,3.419,2.046,3.666c0.358,0.263,0.856-0.321,1.07-1.503c0.214-1.18,1.696-5.762,2.281-7.664
				c0.665-2.17,1.297-5.159,1.509-6.126C145.505,237.376,147.143,235.399,147.143,235.399z"/>
			<path fill="#7B6E3E" stroke="#97854D" stroke-width="3" d="M352.13,235.399c0,0-3.907,5.732-4.265,7.922
				c-0.358,2.195-1.248,3.059-1.248,3.059s-3.207-4.669-4.278-5.929c-1.066-1.256-3.553-4.342-4.373-5.061
				c-0.819-0.721-2.874-1.385-2.874-1.385s-0.218,1.822,0.173,4.376c0.391,2.557,0.42,4.393,0.63,5.583
				c0.19,1.05,0.708,3.961,0.922,4.9c0.21,0.943,0.033,1.19,0.033,1.19s-1.28-0.651-2.174-2.705
				c-0.889-2.046-1.425-3.162-1.672-3.985c-0.251-0.832-2.116-1.758-2.116-1.758s-0.881,2.075-0.737,5.171
				c0.14,3.092-0.144,6.153,0.642,8.71c0.786,2.553,0.959,3.084,0.321,5.315c-0.642,2.232-1.14,2.45-1.07,4.076
				c0.07,1.618,0.07,4.006-0.037,4.167c-0.543,0.811-0.218,0.091-2.804,1.62c0,0,0,6.221,0.165,9.638
				c0.045,0.968-1.532,1.762-2.137,2.112c-0.605,0.362-0.782,0.79-0.782,0.79s0.037,3.277,0.037,4.681
				c0,1.4,0.037,2.948-0.502,4.673c-0.535,1.729-3.812,6.015-5.233,7.16c-1.429,1.157-2.676,3.055-4.85,4.352
				c-2.178,1.293-9.696,3.018-11.656,4.064c-1.96,1.046-4.632,3.197-6.554,5.75c-1.927,2.553-3.281,4.607-3.78,4.821
				c-0.498,0.214-10.729,8.312-10.729,8.312s12.38,10.721,15.756,15.831c2.421,3.666,5.731,8.607,14.11,3.586
				c1.651-0.986,8.234-5.575,8.947-5.719c0.712-0.136,4.702-2.479,6.625-2.759c1.927-0.292,3.64-0.766,5.809-2.672
				c2.178-1.91,3.639-2.804,5.245-3.096c1.601-0.28,2.347-0.898,2.635-1.688c0.284-0.795,0.782-0.679,2.347-0.828
				c1.573-0.14,2.52-0.93,2.52-0.93s-1.091-0.432-1.412-1.626c-0.317-1.178,0.964-1.54,2.495-2.985
				c1.536-1.437,3.961-4.241,5.492-5.826c1.532-1.577,2.898-2.503,2.898-2.503s-0.692-0.115-1.083-0.729
				c-0.391-0.613-0.502-0.465,1.355-3.742c1.853-3.271,5.542-8.87,8.465-14.144c2.787-5.035,3.487-7.32,4.307-9.264
				c0.819-1.943,1.453-5.859,1.453-5.859s-2.277,0.951-3.454,1.853c-1.178,0.897-2.536,1.338-2.536,1.338s-0.074-2.693,0.712-6.246
				c0.782-3.565,1.495-8.21,1.425-10.9c-0.07-2.705-1.89-2.886-1.997-4.426c-0.107-1.548,0.144-6.184,0.354-8.522
				c0.218-2.343,0.642-3.343,0.712-4.095c0.342-3.594,0.008-3.277-0.02-4.377c0,0-2.273,0.585-3.454,3.285
				c-0.782,1.789-1.692,3.419-2.042,3.666c-0.358,0.263-0.856-0.321-1.07-1.503c-0.214-1.18-1.696-5.762-2.281-7.664
				c-0.667-2.17-1.297-5.159-1.511-6.126C353.769,237.376,352.13,235.399,352.13,235.399z"/>
		</g>
		<g>
			<g>
				<path fill-rule="evenodd" clip-rule="evenodd" fill="none" stroke="#97854D" stroke-width="3" d="M162.424,250.053
					c-2.291,3.024-4.541,6.042-4.881,7.602c-0.758,3.421-3.129,9.609-3.129,9.609s-6.279,5.095-6.579,6.47
					c-0.303,1.367-1.326,7.518-1.116,9.041c0.21,1.523,1.081,9.334,1.289,10.857c0.21,1.536,4.587,7.876,6.493,9.873
					c1.906,1.993,19.915,13.939,25.553,16.85c5.637,2.919,11.967,6.332,14.523,7.629c2.565,1.285,14.521,7.323,14.521,7.323"/>
				<path fill-rule="evenodd" clip-rule="evenodd" fill="none" stroke="#97854D" stroke-width="3" d="M152.66,246.381
					c-0.548,1.816-0.224,0.626-0.881,3.603c-0.605,2.736-3.01,7.569-3.623,9.957c-0.613,2.405-4.673,1.997-3.187,7.234
					c1.482,5.227,1.737,14.042,1.737,14.042"/>
				<path fill-rule="evenodd" clip-rule="evenodd" fill="none" stroke="#97854D" stroke-width="3" d="M147.143,235.399
					c0,0-3.236,16.653-3.471,20.577c-0.241,3.924,1.062,10.165,1.062,10.165"/>
				<path fill-rule="evenodd" clip-rule="evenodd" fill="none" stroke="#97854D" stroke-width="3" d="M133.989,267.862
					c0,0,7.324,8.084,8.543,9.579c1.219,1.507,4.175,3.775,4.175,3.775"/>
				<path fill-rule="evenodd" clip-rule="evenodd" fill="none" stroke="#97854D" stroke-width="3" d="M172.073,270.663
					c-1.219,1.071-5.151,10.906-5.626,12.113c-0.476,1.198-1.394,11.611-1.696,12.809c-0.307,1.202-4.535,12.183-4.535,12.183"/>
				<path fill-rule="evenodd" clip-rule="evenodd" fill="none" stroke="#97854D" stroke-width="3" d="M168.19,260.912
					c0,0-6.902,4.813-9.494,8.971c-2.59,4.144-3.224,12.317-3.351,13.856c-0.128,1.54,0.829,16.835,0.795,17.848
					c-0.041,1.124-0.239,3.08-0.239,3.08s-1.803,2.927-1.917,4.978c-0.117,2.04,0,3.119,0,3.119"/>
				<path fill-rule="evenodd" clip-rule="evenodd" fill="none" stroke="#97854D" stroke-width="3" d="M146.707,281.216
					c0.683,0.325,5.883,2.042,9.939,2.285c4.047,0.222,9.754-0.581,9.754-0.581"/>
				<path fill-rule="evenodd" clip-rule="evenodd" fill="none" stroke="#97854D" stroke-width="3" d="M140.037,304.223
					c0,0,8.819,2.837,11.242,5.15c2.419,2.312,6.656,9.694,8.739,12.189c2.088,2.499,6.678,3.907,8.208,4.385
					c1.532,0.473,4.103,2.104,4.477,3.627c0.375,1.527,1.857,8.922,1.857,8.922"/>
				<path fill-rule="evenodd" clip-rule="evenodd" fill="none" stroke="#97854D" stroke-width="3" d="M175.547,293.139
					c0,0-0.416,2.318-1.346,5.406c-0.968,3.178-5.072,8.506-5.571,10.342c-0.461,1.717,0.601,12.922,0.821,14.956
					c0.22,2.038,0.644,2.977,0.644,2.977"/>
				<path fill-rule="evenodd" clip-rule="evenodd" fill="none" stroke="#97854D" stroke-width="3" d="M136.122,285.255
					c0.86,0.659,7.843,8.485,9.218,9.478c1.371,0.98,4.774,2.898,4.774,2.898"/>
				<path fill-rule="evenodd" clip-rule="evenodd" fill="none" stroke="#97854D" stroke-width="3" d="M187.86,305.11
					c0,0-2.279,7.279-2.048,9.655c0.226,2.38,0.574,8.914,0.574,8.914"/>
				<path fill-rule="evenodd" clip-rule="evenodd" fill="none" stroke="#97854D" stroke-width="3" d="M194.929,307.319
					c0,0,1.108,6.804,0.642,8.352c-0.467,1.536,0.517,13.068,0.517,13.068"/>
				<path fill-rule="evenodd" clip-rule="evenodd" fill="none" stroke="#97854D" stroke-width="3" d="M186.386,323.678
					c0,0-2.135,5.422-1.797,9.325c0.772,3.722,1.429,3.895,0.156,6.995c-1.27,3.088-1.258,3.316-1.258,3.316"/>
				<path fill-rule="evenodd" clip-rule="evenodd" fill="none" stroke="#97854D" stroke-width="3" d="M180.525,299.718
					c0,0-1.61,9.107-1.908,10.651c-0.301,1.53,0.618,9.554,0.618,9.554"/>
				<path fill-rule="evenodd" clip-rule="evenodd" fill="none" stroke="#97854D" stroke-width="3" d="M164.777,324.707
					c0,0-6.699,0.14-9.239-0.477c-2.546-0.613-5.414-3.113-5.414-3.113"/>
				<path fill-rule="evenodd" clip-rule="evenodd" fill="none" stroke="#97854D" stroke-width="3" d="M166.399,282.92
					c0,0,4.037,15.822,4.702,16.485c0.665,0.663,1.877,4.204,1.877,4.204s5.188,14.276,5.579,15.717"/>
				<path fill-rule="evenodd" clip-rule="evenodd" fill="none" stroke="#97854D" stroke-width="3" d="M152.66,246.381
					c0,0,4.109,11.888,4.109,14.099s9.498,17.092,9.63,22.441"/>
				<path fill-rule="evenodd" clip-rule="evenodd" fill="none" stroke="#97854D" stroke-width="3" d="M186.386,323.678
					c0,0-10.968,3.73-12.273,4.261c-1.303,0.519-12.535,3.574-13.187,4.097"/>
			</g>
			<g>
				<path fill-rule="evenodd" clip-rule="evenodd" fill="none" stroke="#97854D" stroke-width="3" d="M290.179,335.307
					c0,0,11.952-6.038,14.517-7.323c2.561-1.297,8.889-4.71,14.525-7.629c5.64-2.911,23.649-14.857,25.555-16.85
					c1.906-1.997,6.283-8.337,6.493-9.873c0.206-1.523,1.079-9.334,1.285-10.857c0.21-1.523-0.811-7.674-1.116-9.041
					c-0.301-1.375-6.579-6.47-6.579-6.47s-2.367-6.188-3.125-9.609c-0.342-1.56-2.59-4.578-4.883-7.602"/>
				<path fill-rule="evenodd" clip-rule="evenodd" fill="none" stroke="#97854D" stroke-width="3" d="M352.571,281.216
					c0,0,0.251-8.815,1.737-14.042c1.482-5.237-2.573-4.829-3.187-7.234c-0.613-2.388-3.022-7.221-3.623-9.957
					c-0.659-2.977-0.337-1.787-0.881-3.603"/>
				<path fill-rule="evenodd" clip-rule="evenodd" fill="none" stroke="#97854D" stroke-width="3" d="M354.543,266.141
					c0,0,1.301-6.242,1.062-10.165c-0.235-3.924-3.475-20.577-3.475-20.577"/>
				<path fill-rule="evenodd" clip-rule="evenodd" fill="none" stroke="#97854D" stroke-width="3" d="M352.571,281.216
					c0,0,2.956-2.269,4.175-3.775c1.219-1.495,8.543-9.579,8.543-9.579"/>
				<path fill-rule="evenodd" clip-rule="evenodd" fill="none" stroke="#97854D" stroke-width="3" d="M339.062,307.767
					c0,0-4.228-10.98-4.537-12.183c-0.301-1.198-1.219-11.61-1.696-12.809c-0.473-1.206-4.405-11.042-5.624-12.113"/>
				<path fill-rule="evenodd" clip-rule="evenodd" fill="none" stroke="#97854D" stroke-width="3" d="M345.291,312.763
					c0,0,0.115-1.079,0-3.119c-0.115-2.05-1.914-4.978-1.914-4.978s-0.198-1.956-0.239-3.08c-0.037-1.013,0.922-16.308,0.794-17.848
					c-0.128-1.54-0.766-9.712-3.355-13.856c-2.59-4.158-9.49-8.971-9.49-8.971"/>
				<path fill-rule="evenodd" clip-rule="evenodd" fill="none" stroke="#97854D" stroke-width="3" d="M332.878,282.92
					c0,0,5.702,0.803,9.753,0.581c4.056-0.243,9.251-1.96,9.939-2.285"/>
				<path fill-rule="evenodd" clip-rule="evenodd" fill="none" stroke="#97854D" stroke-width="3" d="M324.718,338.496
					c0,0,1.482-7.395,1.857-8.922c0.375-1.523,2.944-3.154,4.475-3.627c1.532-0.477,6.122-1.886,8.21-4.385
					c2.083-2.495,6.32-9.877,8.737-12.189c2.421-2.314,11.24-5.15,11.24-5.15"/>
				<path fill-rule="evenodd" clip-rule="evenodd" fill="none" stroke="#97854D" stroke-width="3" d="M329.177,326.82
					c0,0,0.428-0.939,0.647-2.977c0.222-2.034,1.284-13.239,0.819-14.956c-0.498-1.836-4.603-7.164-5.566-10.342
					c-0.93-3.088-1.35-5.406-1.35-5.406"/>
				<path fill-rule="evenodd" clip-rule="evenodd" fill="none" stroke="#97854D" stroke-width="3" d="M349.162,297.631
					c0,0,3.401-1.918,4.776-2.898c1.375-0.992,8.358-8.819,9.218-9.478"/>
				<path fill-rule="evenodd" clip-rule="evenodd" fill="none" stroke="#97854D" stroke-width="3" d="M312.89,323.678
					c0,0,0.346-6.534,0.576-8.914c0.231-2.375-2.05-9.655-2.05-9.655"/>
				<path fill-rule="evenodd" clip-rule="evenodd" fill="none" stroke="#97854D" stroke-width="3" d="M303.19,328.738
					c0,0,0.98-11.532,0.515-13.068c-0.465-1.548,0.642-8.352,0.642-8.352"/>
				<path fill-rule="evenodd" clip-rule="evenodd" fill="none" stroke="#97854D" stroke-width="3" d="M315.788,343.315
					c0,0,0.012-0.228-1.26-3.316c-1.268-3.1-0.613-3.273,0.156-6.995c0.338-3.903-1.795-9.325-1.795-9.325"/>
				<path fill-rule="evenodd" clip-rule="evenodd" fill="none" stroke="#97854D" stroke-width="3" d="M320.041,319.923
					c0,0,0.918-8.024,0.618-9.554c-0.296-1.544-1.906-10.651-1.906-10.651"/>
				<path fill-rule="evenodd" clip-rule="evenodd" fill="none" stroke="#97854D" stroke-width="3" d="M349.153,321.117
					c0,0-2.87,2.499-5.414,3.113c-2.544,0.617-9.239,0.477-9.239,0.477"/>
				<path fill-rule="evenodd" clip-rule="evenodd" fill="none" stroke="#97854D" stroke-width="3" d="M332.878,282.92
					c0,0-4.039,15.822-4.702,16.485c-0.667,0.663-1.877,4.204-1.877,4.204s-5.188,14.276-5.579,15.717"/>
				<path fill-rule="evenodd" clip-rule="evenodd" fill="none" stroke="#97854D" stroke-width="3" d="M346.617,246.381
					c0,0-4.109,11.888-4.109,14.099s-9.498,17.092-9.63,22.441"/>
				<path fill-rule="evenodd" clip-rule="evenodd" fill="none" stroke="#97854D" stroke-width="3" d="M312.89,323.678
					c0,0,10.968,3.73,12.273,4.261c1.301,0.519,12.537,3.574,13.187,4.097"/>
			</g>
		</g>
		<path fill="#0033A0" stroke="#97854D" stroke-width="3" d="M250.221,350.053c0,0,7.515,0,15.992,0.313
			c8.457,0.313,19.577,1.379,19.577,1.379s0.309,9.731,1.054,13.321c0.745,3.602,8.576,6.46,14.612,6.349
			c6.036-0.103,12.174,0.642,21.693,2.334c9.527,1.692,19.05,9.642,19.05,9.642l-7.197-20.33l24.118-2.545
			c0,0-5.377-3.915-13.113-7.495c-7.724-3.603-17.881-5.303-24.229-5.62c-6.357-0.317-17.786,0.741-17.786,0.741
			s-0.099-7.086-0.313-9.947c-0.218-2.861-0.634-12.286-0.634-12.286s-8.37-2.643-21.809-4.331
			c-13.434-1.696-31.538-1.803-31.538-1.803h-0.107c0,0-18.1,0.107-31.54,1.803c-13.445,1.688-21.802,4.331-21.802,4.331
			s-0.424,9.424-0.634,12.286c-0.214,2.861-0.319,9.947-0.319,9.947s-11.433-1.058-17.78-0.741
			c-6.349,0.317-16.514,2.017-24.238,5.62c-7.728,3.58-13.126,7.495-13.126,7.495l24.131,2.545l-7.197,20.33
			c0,0,9.527-7.95,19.052-9.642c9.525-1.692,15.668-2.437,21.697-2.334c6.029,0.111,13.864-2.746,14.606-6.349
			c0.741-3.59,1.06-13.321,1.06-13.321s11.106-1.066,19.575-1.379c8.474-0.313,15.988-0.313,15.988-0.313H250.221z"/>
		<g>
			<g>
				<path fill="none" stroke="#97854D" stroke-width="3" d="M213.501,351.745c0,0-8.8,0.581-11.798,1.062
					c-2.758,0.426-6.583,1.237-6.583,4.152c0,3.726,4.134,3.405,8.683,3.405c4.554,0,9.204,0.124,9.204,0.124"/>
				<path fill="none" stroke="#97854D" stroke-width="3" d="M195.295,348.142c0,0-0.257,6.676-0.187,8.751"/>
			</g>
			<g>
				<path fill="none" stroke="#97854D" stroke-width="3" d="M285.79,351.745c0,0,8.798,0.568,11.804,1.046
					c2.759,0.43,6.575,1.241,6.575,4.156c0,3.726-4.129,3.397-8.679,3.397c-4.549,0-9.214,0.14-9.214,0.14"/>
				<path fill="none" stroke="#97854D" stroke-width="3" d="M303.992,348.142c0,0,0.267,6.66,0.193,8.739"/>
			</g>
		</g>
		<g>
			<path fill="#97854D" d="M202.029,329.076l5.357-0.441l1.529,18.396l-5.354,0.441L202.029,329.076z"/>
			<path fill="#97854D" d="M211.785,328.055l16.265-1.182l0.329,4.537l-5.451,0.395l1.013,13.871l-5.365,0.391l-1.009-13.875
				l-5.451,0.403L211.785,328.055z"/>
			<path fill="#97854D" d="M242.308,341.752l-6.118,0.161l-0.757,3.067l-5.501,0.148l6.043-18.634l5.888-0.156l7.02,18.28
				l-5.62,0.152L242.308,341.752z M241.065,337.792l-2.079-6.583l-1.725,6.682L241.065,337.792z"/>
			<path fill="#97854D" d="M252.973,326.083l5.369,0.14l-0.362,13.916l8.383,0.222l-0.12,4.537l-13.756-0.358L252.973,326.083z"/>
			<path fill="#97854D" d="M271.43,326.844l5.365,0.301l-1.017,18.432l-5.361-0.3L271.43,326.844z"/>
			<path fill="#97854D" d="M292.254,343.84l-6.093-0.613l-1.14,2.948l-5.468-0.552l8.354-17.716l5.863,0.593l4.64,19.021
				l-5.587-0.56L292.254,343.84z M291.521,339.76l-1.227-6.802l-2.557,6.423L291.521,339.76z"/>
		</g>
		<path fill="#007852" d="M175.869,162.015c0,33.119,0,71.793,0,74.261c0,10.611,2.647,36.17,30.15,54.504
			c7.032,4.685,13.014,8.094,17.947,10.631V162.015H175.869z"/>
		<path fill="#CF0A2C" d="M275.308,162.015v139.396c4.932-2.536,10.91-5.945,17.947-10.631
			c27.503-18.334,30.154-43.893,30.154-54.504c0-2.468,0-41.143,0-74.261H275.308z"/>
		<path fill="#FFFFFF" d="M223.965,162.015v139.391c7.135,3.66,12.056,5.488,14.605,6.583c4.665,2.001,11.05,4.282,11.05,4.282
			h0.033c0,0,6.387-2.281,11.047-4.282c2.553-1.095,7.473-2.923,14.608-6.583V162.015H223.965z"/>
		<rect x="175.867" y="114.499" fill="#0033A0" width="147.538" height="47.514"/>
		<g>
			<path fill="#97854D" d="M192.693,124.413h22.173v6.254h-13.204v5.054h11.31v5.873h-11.31v11.816h-8.969V124.413z"/>
			<path fill="#97854D" d="M221.981,146.524h7.331v6.886h-7.331V146.524z"/>
			<path fill="#97854D" d="M237.503,124.413h8.971v28.997h-8.971V124.413z"/>
			<path fill="#97854D" d="M255.233,146.524h7.329v6.886h-7.329V146.524z"/>
			<path fill="#97854D" d="M270.503,153.41v-28.997h14.921c2.767,0,4.887,0.239,6.353,0.712c1.457,0.478,2.635,1.355,3.529,2.643
				c0.897,1.289,1.346,2.853,1.346,4.702c0,1.61-0.346,3.001-1.029,4.171c-0.692,1.169-1.634,2.116-2.845,2.837
				c-0.77,0.465-1.816,0.848-3.158,1.149c1.066,0.36,1.832,0.718,2.322,1.074c0.329,0.241,0.803,0.749,1.424,1.534
				c0.622,0.782,1.034,1.387,1.247,1.809l4.377,8.366h-10.112l-4.792-8.848c-0.605-1.144-1.149-1.89-1.622-2.231
				c-0.651-0.449-1.379-0.675-2.199-0.675h-0.795v11.755H270.503z M279.471,136.163h3.796c0.408,0,1.202-0.13,2.392-0.391
				c0.585-0.119,1.083-0.42,1.457-0.908c0.375-0.488,0.572-1.048,0.572-1.678c0-0.93-0.305-1.651-0.902-2.149
				c-0.597-0.5-1.717-0.749-3.364-0.749h-3.952V136.163z"/>
			<path fill="#97854D" d="M304.219,146.524h7.328v6.886h-7.328V146.524z"/>
		</g>
		<g>
			<line fill="none" stroke="#97854D" stroke-width="5" x1="175.867" y1="162.013" x2="323.405" y2="162.013"/>
			<g>
				<path fill="none" stroke="#97854D" stroke-width="5" d="M249.657,312.27c0,0,6.383-2.281,11.047-4.282
					c4.311-1.849,15.336-5.743,32.55-17.21c27.503-18.331,30.15-43.895,30.15-54.504c0-4.36,0-121.775,0-121.775h-73.525h-0.482
					h-73.529c0,0,0,117.415,0,121.775c0,10.609,2.651,36.172,30.152,54.504c17.208,11.466,28.242,15.361,32.549,17.21
					c4.669,2.001,11.054,4.282,11.054,4.282H249.657z"/>
			</g>
		</g>
	</g>
</g>
</svg>
