<?xml version="1.0" encoding="utf-8"?>
<!-- Generator: Adobe Illustrator 17.0.0, SVG Export Plug-In . SVG Version: 6.00 Build 0)  -->
<!DOCTYPE svg PUBLIC "-//W3C//DTD SVG 1.1//EN" "http://www.w3.org/Graphics/SVG/1.1/DTD/svg11.dtd">
<svg version="1.1" xmlns="http://www.w3.org/2000/svg" xmlns:xlink="http://www.w3.org/1999/xlink" x="0px" y="0px" width="500px"
	 height="500px" viewBox="0 0 500 500" enable-background="new 0 0 500 500" xml:space="preserve">
<g id="Layer_1">
</g>
<g id="Ebene_1">
	<path d="M250.648,80.854c35.74,0,68.24,19.144,91.823,49.983c23.427,30.723,37.939,73.142,37.939,119.805
		c0,46.665-14.512,89.005-37.939,119.803c-23.583,30.802-56.083,49.944-91.823,49.944c-35.895,0-68.393-19.142-91.937-49.944
		c-23.467-30.798-37.941-73.139-37.941-119.804c0-46.663,14.474-89.081,37.941-119.805
		C182.254,99.998,214.753,80.854,250.648,80.854L250.648,80.854z"/>
	<path fill="#EACC00" d="M250.648,83.439c-34.968,0-66.733,18.681-89.699,48.903c-23.158,30.297-37.516,72.138-37.516,118.298
		c0,46.084,14.358,87.922,37.516,118.222c22.966,30.221,54.73,48.978,89.699,48.978c34.816,0,66.579-18.757,89.621-48.978
		c23.119-30.3,37.439-72.139,37.439-118.222c0-46.161-14.32-88.001-37.439-118.299C317.227,102.12,285.463,83.439,250.648,83.439
		L250.648,83.439z"/>
	<path d="M250.648,92.74c22.85,0,44.272,8.801,62.412,24.046c18.68,15.709,33.849,38.288,43.614,64.996l0.385,1.236l-1.196,0.424
		c-13.933,5.134-30.453,9.262-48.67,12.042c-17.483,2.702-36.628,4.207-56.544,4.207c-20.032,0-39.175-1.506-56.698-4.207
		c-18.219-2.779-34.737-6.908-48.594-12.042l-1.274-0.424l0.463-1.236c9.688-26.709,24.857-49.288,43.538-64.996
		C206.262,101.542,227.722,92.74,250.648,92.74L250.648,92.74z"/>
	<path d="M359.645,190.623l0.387,1.428c2.779,9.224,4.939,18.797,6.368,28.793c1.39,9.687,2.123,19.645,2.123,29.912
		c0,6.831-0.347,13.509-0.964,20.109c-0.617,6.754-1.621,13.354-2.857,19.84l-0.347,1.543l-1.506-0.581
		c-14.165-5.366-31.457-9.724-50.947-12.735c-18.797-2.857-39.562-4.441-61.254-4.441c-21.846,0-42.61,1.585-61.407,4.441
		c-19.413,3.011-36.782,7.369-50.947,12.735l-1.506,0.581l-0.27-1.543c-1.274-6.486-2.24-13.086-2.857-19.84
		c-0.695-6.6-1.004-13.278-1.004-20.109c0-10.267,0.773-20.225,2.123-29.912c1.427-9.997,3.551-19.569,6.33-28.793l0.463-1.428
		l1.351,0.579c13.933,5.442,30.607,9.803,49.249,12.853c17.986,2.855,37.71,4.438,58.474,4.438c20.611,0,40.372-1.583,58.32-4.438
		c18.642-3.05,35.394-7.411,49.287-12.853L359.645,190.623L359.645,190.623z"/>
	<path d="M362.579,300.199l-0.309,1.121c-8.028,31.571-23.274,58.664-43.035,77.772c-19.376,18.603-43.112,29.639-68.587,29.639
		c-25.629,0-49.366-11.037-68.663-29.639c-19.839-19.108-35.084-46.201-43.073-77.772l-0.27-1.121l1.081-0.385
		c14.28-5.173,31.457-9.343,50.716-12.199c18.525-2.777,38.866-4.245,60.21-4.245c21.228,0,41.608,1.468,60.057,4.245
		c19.259,2.857,36.513,7.026,50.716,12.199L362.579,300.199L362.579,300.199z"/>
	<path fill="#172983" d="M337.876,186.377c5.558-1.467,10.807-3.126,15.748-4.901c-4.247-11.54-9.573-22.27-15.748-31.958V186.377
		L337.876,186.377z"/>
	<path fill="#172983" d="M299.047,194.019c2.664-0.347,5.173-0.771,7.758-1.08c3.937-0.656,7.837-1.351,11.695-2.084v-65.499
		c-2.354-2.316-4.747-4.477-7.216-6.562c-3.898-3.318-7.99-6.291-12.237-8.993V194.019L299.047,194.019z"/>
	<path fill="#172983" d="M163.265,149.517c-6.176,9.688-11.464,20.419-15.747,31.958c4.94,1.775,10.189,3.434,15.747,4.901V149.517
		L163.265,149.517z"/>
	<path fill="#172983" d="M202.093,109.801c-4.207,2.702-8.337,5.674-12.235,8.993c-2.432,2.085-4.864,4.246-7.141,6.562v65.499
		c3.783,0.733,7.681,1.428,11.695,2.084c2.508,0.308,5.094,0.733,7.681,1.08V109.801L202.093,109.801z"/>
	<path fill="#FFED00" d="M318.5,190.855c6.754-1.312,13.239-2.817,19.376-4.478v-36.86c-5.751-8.993-12.273-17.136-19.376-24.162
		V190.855L318.5,190.855z"/>
	<path fill="#FFED00" d="M182.717,125.355c-7.178,7.025-13.662,15.169-19.453,24.162v36.86c6.137,1.66,12.621,3.166,19.453,4.478
		V125.355L182.717,125.355z"/>
	<path fill="#172983" d="M260.335,183.058v13.857c6.562-0.155,13.008-0.502,19.299-0.965v-38.211
		C273.188,166.19,266.743,174.605,260.335,183.058L260.335,183.058z"/>
	<path fill="#172983" d="M221.507,157.506v38.443c6.33,0.463,12.775,0.81,19.376,0.965v-14.049
		C234.437,174.413,227.992,165.959,221.507,157.506L221.507,157.506z"/>
	<path fill="#E32219" d="M276.005,117.444l0.579-0.773l0.694,0.579c0.926,0.81,1.66,1.621,2.354,2.586v-19.49
		c-6.252-2.161-12.659-3.705-19.299-4.477v41.762C265.546,130.875,270.796,124.16,276.005,117.444L276.005,117.444z"/>
	<path fill="#008F2F" d="M221.739,119.836c0.617-0.965,1.428-1.775,2.316-2.586l0.733-0.579l0.579,0.773
		c5.171,6.638,10.344,13.276,15.516,19.916V95.868c-6.601,0.771-13.124,2.316-19.376,4.477v19.839
		C221.584,120.068,221.661,119.952,221.739,119.836L221.739,119.836z"/>
	<path fill="#FFED00" d="M281.062,122.344c2.819,0.426,5.443,1.12,7.45,2.317c2.238,1.388,3.783,3.318,4.207,6.291
		c0.038,0.308,0.115,0.463,0.153,0.54c0.04,0,0.117,0.038,0.27,0.038l5.905-0.038v-21.692c-6.175-3.898-12.659-7.024-19.413-9.456
		v19.491C280.212,120.647,280.677,121.457,281.062,122.344L281.062,122.344z"/>
	<path fill="#FFED00" d="M289.669,153.261h-1.543v-0.077l-3.975,0.077c-0.347,0-0.694,0-0.887,0.115
		c-0.232,0.04-0.426,0.232-0.581,0.387c-1.041,1.351-2.045,2.663-3.049,3.975v38.211c6.639-0.463,13.124-1.119,19.413-1.93v-40.835
		L289.669,153.261L289.669,153.261z"/>
	<path fill="#FFED00" d="M208.462,131.493c0.116-0.077,0.154-0.232,0.154-0.54c0.464-2.973,2.007-4.903,4.246-6.291
		c2.007-1.197,4.593-1.891,7.45-2.317c0.347-0.771,0.733-1.504,1.196-2.16v-19.839c-6.715,2.432-13.239,5.558-19.413,9.456v21.692
		l6.137,0.038C208.346,131.531,208.462,131.493,208.462,131.493L208.462,131.493z"/>
	<path fill="#FFED00" d="M218.652,153.763c-0.193-0.155-0.348-0.347-0.503-0.387c-0.308-0.115-0.578-0.115-1.003-0.115l-3.898-0.077
		v0.077h-1.544l-9.611-0.077v40.835c6.291,0.811,12.775,1.467,19.413,1.93v-38.443C220.542,156.271,219.616,155.037,218.652,153.763
		L218.652,153.763z"/>
	<path fill="#FFED00" d="M250.686,195.718c-3.241-4.284-6.522-8.568-9.803-12.853v14.049c3.204,0.077,6.484,0.116,9.765,0.116
		c3.242,0,6.446-0.039,9.687-0.116v-13.857C257.093,187.265,253.89,191.511,250.686,195.718L250.686,195.718z"/>
	<path fill="#FFFFFF" d="M250.686,149.98c3.204-4.13,6.407-8.26,9.648-12.351V95.868c-3.241-0.347-6.445-0.54-9.687-0.54
		c-3.28,0-6.561,0.193-9.765,0.54v41.492C244.164,141.566,247.405,145.773,250.686,149.98L250.686,149.98z"/>
	<path fill="#172983" d="M163.265,351.841v-56.313c-7.681,1.891-14.898,4.015-21.421,6.294
		C146.668,320.346,154.001,337.291,163.265,351.841L163.265,351.841z"/>
	<path fill="#172983" d="M182.717,291.513v84.606c0.347,0.309,0.734,0.732,1.159,1.079c5.712,5.558,11.772,10.384,18.218,14.399
		V288.698c-3.783,0.46-7.566,0.962-11.231,1.506C188.083,290.589,185.342,291.053,182.717,291.513L182.717,291.513z"/>
	<path fill="#172983" d="M337.876,295.528v56.314c9.341-14.55,16.673-31.496,21.499-50.019
		C352.774,299.543,345.595,297.419,337.876,295.528L337.876,295.528z"/>
	<path fill="#172983" d="M299.047,288.698v102.899c6.447-4.015,12.584-8.841,18.295-14.399c0.347-0.347,0.734-0.77,1.159-1.079
		v-84.606c-2.702-0.46-5.441-0.925-8.22-1.309C306.612,289.66,302.908,289.159,299.047,288.698L299.047,288.698z"/>
	<path fill="#FFED00" d="M337.876,295.528c-6.137-1.506-12.622-2.815-19.376-4.015v84.606c7.103-7.064,13.625-15.206,19.376-24.277
		V295.528L337.876,295.528z"/>
	<path fill="#FFED00" d="M182.717,291.513c-6.754,1.2-13.239,2.509-19.453,4.015v56.314c5.79,9.071,12.274,17.214,19.453,24.277
		V291.513L182.717,291.513z"/>
	<path fill="#172983" d="M279.633,308.075v-21.154c-6.29-0.422-12.737-0.694-19.299-0.849v22.002L279.633,308.075L279.633,308.075z"
		/>
	<path fill="#172983" d="M278.013,369.867c-2.007,1.928-4.979,3.011-9.109,3.011h-8.569v32.692
		c6.639-0.736,13.046-2.317,19.299-4.517v-33.311C279.209,368.515,278.669,369.248,278.013,369.867L278.013,369.867z"/>
	<path fill="#172983" d="M240.883,308.075v-22.002c-6.601,0.155-13.046,0.426-19.376,0.849v21.154H240.883L240.883,308.075z"/>
	<path fill="#172983" d="M232.275,372.878c-4.168,0-7.14-1.083-9.146-3.011c-0.657-0.619-1.159-1.351-1.622-2.124v33.311
		c6.252,2.2,12.775,3.781,19.376,4.517v-32.692H232.275L232.275,372.878z"/>
	<path fill="#FFED00" d="M279.633,286.921v21.154h1.545v52.838c0,2.664-0.502,4.977-1.545,6.829v33.311
		c6.754-2.354,13.239-5.596,19.413-9.456V288.698C292.757,287.962,286.273,287.385,279.633,286.921L279.633,286.921z"/>
	<path fill="#FFED00" d="M260.335,308.075v-22.002c-3.241-0.075-6.445-0.117-9.687-0.117c-3.28,0-6.561,0.041-9.765,0.117v22.002
		L260.335,308.075L260.335,308.075z"/>
	<path fill="#FFED00" d="M258.869,372.878c-1.658,0-3.011,0.694-4.245,1.736c-1.313,1.083-2.393,2.585-3.358,4.015l-0.618,0.925
		l-0.694-0.925c-1.004-1.43-2.084-2.932-3.32-4.015c-1.235-1.041-2.663-1.736-4.322-1.736h-1.428v32.692
		c3.204,0.347,6.484,0.577,9.765,0.577c3.242,0,6.446-0.23,9.687-0.577v-32.692H258.869L258.869,372.878z"/>
	<path fill="#FFED00" d="M219.964,360.913v-52.838h1.543v-21.154c-6.638,0.464-13.122,1.041-19.413,1.777v102.899
		c6.175,3.86,12.698,7.101,19.413,9.456v-33.311C220.466,365.852,219.964,363.576,219.964,360.913L219.964,360.913z"/>
	<path fill="#EACC00" d="M279.558,360.913c0,3.32-0.773,6.022-2.626,7.795c-1.698,1.66-4.36,2.585-8.028,2.585h-10.035
		c-2.045,0-3.821,0.849-5.248,2.125c-1.159,0.966-2.123,2.162-2.973,3.358c-0.925-1.196-1.891-2.392-3.01-3.358
		c-1.467-1.275-3.204-2.125-5.326-2.125h-10.036c-3.704,0-6.329-0.925-8.067-2.585c-1.853-1.774-2.624-4.475-2.624-7.795v-51.294
		h57.973L279.558,360.913L279.558,360.913z M225.599,313.516v45.159c0,3.087,0.385,5.207,1.698,6.638
		c1.274,1.468,3.434,2.083,6.947,2.083h9.38c1.39,0,2.586,0.464,3.628,1.196c1.081,0.736,2.045,1.853,2.817,3.052l0.578,0.808
		l0.502-0.808c0.81-1.2,1.698-2.317,2.817-3.052l0,0c1.004-0.732,2.238-1.196,3.667-1.196h9.339c3.475,0,5.597-0.615,6.909-2.083
		c1.351-1.43,1.698-3.551,1.698-6.638v-45.159H225.599L225.599,313.516z"/>
	<path fill="#172983" d="M274.307,314.829h-47.473v43.846c0,2.74,0.347,4.592,1.388,5.751c1.043,1.117,2.857,1.66,6.021,1.66h9.38
		c1.66,0,3.126,0.498,4.361,1.426c0.965,0.694,1.891,1.581,2.663,2.626c0.733-1.045,1.583-1.932,2.548-2.626l0,0
		c1.274-0.928,2.702-1.426,4.44-1.426h9.339c3.089,0,4.901-0.544,6.023-1.66c1.004-1.159,1.311-3.011,1.311-5.751L274.307,314.829
		L274.307,314.829z"/>
	<path fill="#EACC00" d="M226.834,343.159v3.551h16.673v19.376h0.116c1.119,0,2.084,0.23,3.01,0.615v-23.542H226.834
		L226.834,343.159z"/>
	<polygon fill="#EACC00" points="246.634,335.94 246.634,314.829 243.507,314.829 243.507,333.005 226.834,333.005 226.834,335.94 	
		"/>
	<path fill="#EACC00" d="M252.694,337.253v-22.425h-4.824v22.425h-21.036v4.592h21.036v25.587c0.077,0,0.115,0.079,0.115,0.079
		c0.965,0.694,1.891,1.581,2.663,2.626c0.54-0.811,1.312-1.585,2.046-2.241v-26.051h21.614v-4.592H252.694L252.694,337.253z"/>
	<path fill="#EACC00" d="M253.967,343.159v23.889c1.081-0.615,2.277-0.962,3.667-0.962h0.115V346.71h16.557v-3.551H253.967
		L253.967,343.159z"/>
	<polygon fill="#EACC00" points="257.75,333.005 257.75,314.829 253.967,314.829 253.967,335.94 274.307,335.94 274.307,333.005 	
		"/>
	<path fill="#FFFFFF" d="M357.87,194.173c-13.741,5.211-30.221,9.534-48.478,12.428c-18.14,2.934-38.018,4.554-58.744,4.554
		c-20.88,0-40.758-1.621-58.898-4.554c-18.256-2.895-34.661-7.218-48.478-12.428c-2.508,8.645-4.478,17.677-5.789,27.018
		c-1.352,9.572-2.123,19.453-2.123,29.565c0,6.755,0.348,13.355,0.965,19.879c0.579,6.135,1.467,12.079,2.547,17.984
		c14.05-5.132,30.994-9.339,49.983-12.233c18.913-2.894,39.832-4.479,61.793-4.479c21.884,0,42.726,1.585,61.638,4.479
		c18.991,2.894,36.011,7.101,49.983,12.233c1.159-5.905,2.007-11.848,2.587-17.984c0.617-6.524,0.926-13.124,0.926-19.879
		c0-10.112-0.694-19.993-2.085-29.565C362.346,211.851,360.379,202.819,357.87,194.173L357.87,194.173z"/>
	<path d="M306.922,261.063c-1.196-2.589-5.983-12.737-7.178-15.17c-1.543,0-11.965,0-15.593,0c0,3.783,0,19.068,0,22.928
		c3.513,0.268,6.987,0.615,10.537,0.966c0-2.472,0-12.199,0-14.667c0.115,0.23,0.232,0.46,0.347,0.732
		c1.119,2.238,5.635,12.082,6.831,14.743c5.211,0.736,10.42,1.468,15.593,2.279c0-4.479,0-22.463,0-26.94
		c-3.513,0-6.987-0.04-10.537-0.04C306.922,248.402,306.922,258.591,306.922,261.063L306.922,261.063z"/>
	<path d="M217.107,232.114c-4.207-0.116-8.375-0.231-12.544-0.347c0-1.004,0-2.007,0-3.011c3.783,0.116,7.488,0.27,11.271,0.387
		c0-2.162,0-4.362,0-6.484c-3.783-0.232-7.488-0.463-11.271-0.695c0-0.887,0-1.891,0-2.779c4.053,0.27,8.067,0.54,12.12,0.773
		c0-2.123,0-4.284,0-6.408c-8.182-0.733-16.326-1.582-24.47-2.701c0,4.67,0,23.119,0,27.751c8.336,0,16.557,0,24.894,0
		C217.107,237.518,217.107,233.195,217.107,232.114L217.107,232.114z"/>
	<path d="M290.248,234.584c1.583-0.038,7.913-0.154,9.456-0.154c0.387,1.351,0.734,2.779,1.121,4.168c4.477,0,9.031,0,13.469-0.04
		c-1.698-4.708-8.568-22.695-10.305-27.017c-2.971,0.347-5.943,0.694-8.954,0.965c-2.547,0.308-5.096,0.54-7.604,0.771
		c-1.853,4.362-8.994,21.268-10.769,25.397c4.053,0,8.182-0.077,12.312-0.077C289.361,237.287,289.823,235.896,290.248,234.584
		L290.248,234.584z M295.034,218.182c0-0.116,0.077-0.232,0.077-0.348c0.462,1.699,2.354,8.453,2.817,10.151
		c-0.926,0.077-1.891,0.116-2.894,0.116c-0.964,0.077-1.93,0.115-2.894,0.115C292.642,226.517,294.533,219.802,295.034,218.182
		L295.034,218.182z"/>
	<path d="M348.684,246.047c-3.011-0.038-14.358-0.038-17.022-0.115c-1.813,4.94-9.146,23.236-10.999,27.518
		c4.245,0.811,8.452,1.623,12.659,2.509c0.424-1.468,0.809-2.969,1.274-4.475c1.621,0.309,8.067,1.619,9.688,1.966
		c0.387,1.815,0.809,3.667,1.196,5.483c4.594,1.272,9.186,2.664,13.779,4.128C357.483,276.423,350.421,251.799,348.684,246.047
		L348.684,246.047z M339.535,264.73c-1.041-0.155-2.005-0.272-2.971-0.464c0.424-1.932,0.966-3.898,1.468-5.83
		c0.462-1.853,0.964-3.743,1.504-5.634c0-0.155,0.04-0.272,0.04-0.464c0.54,2.125,1.004,4.245,1.506,6.37
		c0.462,2.125,0.926,4.324,1.428,6.482C341.465,265.036,340.501,264.923,339.535,264.73L339.535,264.73z"/>
	<path d="M167.858,226.556c1.891,0.193,3.898,0.308,5.867,0.463c0,1.969,0,9.572,0,11.54c4.053,0,8.144,0,12.196,0
		c0-4.785,0-23.852,0-28.599c-4.053-0.696-8.144-1.467-12.196-2.24c0,1.776,0,8.685,0,10.421c-1.969-0.308-3.975-0.578-5.867-0.848
		c0-1.776,0-9.032,0-10.808c-4.13-0.887-8.182-1.93-12.274-3.011c0,5.829,0,29.18,0,35.008c4.091,0,8.144,0,12.274,0
		C167.858,236.553,167.858,228.564,167.858,226.556L167.858,226.556z"/>
	<path d="M275.658,238.676c0-1.12,0-5.481,0-6.562c-3.937,0.077-7.835,0.116-11.771,0.193c0-3.01,0-14.666,0-17.677
		c-0.464,0-0.926,0.077-1.39,0.077c-3.743,0.039-7.526,0.116-11.231,0.155c0,3.975,0,19.839,0,23.814
		C254.971,238.676,271.258,238.676,275.658,238.676L275.658,238.676z"/>
	<path d="M247.135,238.676c0-1.12,0-5.288,0-6.37c-3.975,0-7.912,0-11.849-0.077c0-2.934,0-14.667,0-17.639
		c-2.779-0.115-5.558-0.231-8.337-0.347c-1.427-0.115-2.855-0.193-4.284-0.27c0,4.091,0,20.572,0,24.702
		C224.094,238.676,240.419,238.676,247.135,238.676L247.135,238.676z"/>
	<path d="M339.535,237.171c0.696-0.347,1.353-0.811,2.007-1.312c2.703-2.2,4.015-5.288,4.015-8.994c0-2.778-0.771-4.901-2.354-6.214
		c-0.809-0.734-2.085-1.312-3.667-1.775c-1.504-0.386-3.202-0.734-5.286-0.965c-0.579-0.116-1.351-0.154-2.277-0.27
		c-2.664-0.232-3.975-0.926-3.975-2.007c0-0.656,0.23-1.157,0.694-1.621c0.464-0.464,1.081-0.734,1.891-0.926
		c0.928-0.116,1.623-0.039,2.085,0.347c0.424,0.424,0.734,1.043,0.771,2.007c2.007-0.348,9.226-1.583,10.847-1.892
		c0-0.231,0-0.501,0-0.733c0-3.049-1.159-5.171-3.396-6.214c-0.424-0.232-0.889-0.386-1.353-0.502
		c-2.2-0.502-4.977-0.347-8.49,0.386c-4.709,1.043-8.298,2.547-10.961,4.593c-2.624,2.085-3.937,4.438-3.937,7.295
		c0,1.93,0.619,3.436,1.892,4.593c1.274,1.12,3.279,2.007,6.021,2.548c1.159,0.308,2.702,0.54,4.632,0.887
		c1.968,0.27,3.204,0.578,3.86,0.848c0.385,0.117,0.657,0.387,0.849,0.734c0.232,0.424,0.347,0.81,0.347,1.39
		c0,0.694-0.309,1.312-0.811,1.737c-0.502,0.424-1.274,0.657-2.16,0.733c-1.119,0.04-1.853-0.193-2.354-0.656
		c-0.542-0.502-0.811-1.235-0.811-2.277c0-0.116,0-0.155,0-0.27c-3.898,0.27-7.795,0.503-11.695,0.657
		c-0.077,0.193-0.077,0.308-0.077,0.424c0,0.155,0,0.387,0,0.618c0,2.817,1.275,4.94,3.783,6.445
		c2.549,1.468,6.137,2.278,10.847,2.278C334.094,239.062,337.066,238.444,339.535,237.171L339.535,237.171z"/>
	<path d="M275.041,248.44c-2.934-2.007-7.024-2.971-12.505-2.971c0,0,0,0-0.04,0c-5.404,0-9.572,0.964-12.505,2.933
		c-1.467,0.965-2.587,2.161-3.32,3.552c-0.733,1.388-1.08,2.969-1.08,4.747c0,1.774,0.347,3.279,1.08,4.671
		c0.695,1.351,1.775,2.509,3.281,3.472c2.855,1.97,6.908,2.936,12.196,3.09c0.115,0,0.232,0,0.347,0
		c5.52,0.113,9.611-0.619,12.505-2.396c1.468-0.925,2.549-2.045,3.32-3.509c0.732-1.351,1.081-2.973,1.081-4.864
		c0-1.891-0.349-3.551-1.081-4.981C277.551,250.757,276.47,249.483,275.041,248.44L275.041,248.44z M266.627,261.063
		c-0.811,0.849-2.2,1.272-4.13,1.196c-1.968,0-3.318-0.464-4.13-1.234c-0.809-0.811-1.196-2.2-1.196-4.249
		c0-2.2,0.464-3.664,1.196-4.475c0.811-0.734,2.162-1.159,4.13-1.159c0.04,0,0.04,0,0.04,0c1.968,0,3.356,0.424,4.13,1.159
		c0.809,0.732,1.157,2.162,1.157,4.17C267.823,258.708,267.438,260.214,266.627,261.063L266.627,261.063z"/>
	<path d="M193.1,261.757c3.821-0.347,7.681-0.619,11.501-0.925c0-2.007,0-4.056,0-6.139c-3.821,0.193-7.681,0.347-11.501,0.581
		c0-0.966,0-1.894,0-2.819c4.13-0.155,8.221-0.272,12.351-0.387c0-2.045,0-4.13,0-6.176c-8.337,0-16.675,0-24.973,0.04
		c0,4.593,0,22.926,0,27.518c8.492-1.388,16.944-2.622,25.436-3.626c0-1.004,0-5.211,0-6.214c-4.284,0.385-8.608,0.732-12.814,1.196
		C193.1,263.764,193.1,262.798,193.1,261.757L193.1,261.757z"/>
	<path d="M235.596,256.47c2.2-0.389,3.782-1.004,4.94-1.894c1.08-0.849,1.66-1.928,1.66-3.203c0-2.006-1.004-3.434-3.011-4.283
		c-1.968-0.81-5.518-1.274-10.498-1.274c-0.578,0-12.003,0.077-17.098,0.077c0,3.899,0,19.49,0,23.392
		c4.207-0.426,8.376-0.773,12.543-1.004c0-1.351,0-2.743,0-4.053c0-1.392,0-2.743,0-4.094c0.193-0.038,0.926-0.113,1.236-0.113
		c0.579-0.041,1.119,0.075,1.582,0.306c2.354,1.045,2.934,4.709,3.628,7.565c4.246-0.193,8.492-0.309,12.775-0.422
		C241.964,262.334,240.883,257.165,235.596,256.47L235.596,256.47z M228.493,254.463c-0.386,0.193-0.887,0.347-1.544,0.46
		c-0.579,0.117-1.196,0.196-1.891,0.196c-0.231,0.038-0.386,0.038-0.501,0.038c-0.116-0.038-0.309-0.038-0.348-0.038
		c0-1.392,0-2.819,0-4.247c0.155,0,0.386,0,0.579,0c0.231-0.077,0.463-0.077,0.849-0.077c0.463,0,0.926,0,1.312,0.077
		c0.773,0.039,1.313,0.154,1.775,0.386c0.657,0.308,1.004,0.81,1.004,1.506C229.728,253.459,229.304,254.037,228.493,254.463
		L228.493,254.463z"/>
	<path d="M158.518,267.277l-6.484-21.345c-4.438,0-8.182,0-12.582,0.077c2.74,11.001,8.414,22.848,11.809,34.195
		c5.597-1.543,8.761-2.238,14.436-3.551l11.849-30.722l-12.505,0.077L158.518,267.277L158.518,267.277z"/>
	<g>
		<polygon fill="#EACC00" points="241.403,162.597 241.949,154.385 259.501,154.385 260.048,162.597 		"/>
		<path d="M258.097,155.885l0.347,5.211c-5.172,0-10.344,0-15.439,0l0.347-5.211C248.293,155.885,253.157,155.885,258.097,155.885
			 M260.904,152.885h-2.807h-14.745h-2.807l-0.187,2.801l-0.347,5.211l-0.213,3.199h3.206h15.439h3.206l-0.213-3.199l-0.347-5.211
			L260.904,152.885L260.904,152.885z"/>
	</g>
	<g>
		<polygon fill="#EACC00" points="240.438,176.49 240.985,168.281 260.369,168.281 261.037,176.49 		"/>
		<path d="M258.986,169.781l0.424,5.21c-5.791,0-11.581,0-17.369,0l0.347-5.21C247.946,169.781,253.505,169.781,258.986,169.781
			 M261.752,166.781h-2.766h-16.597h-2.807l-0.187,2.801l-0.347,5.21l-0.213,3.199h3.207h17.369h3.254l-0.264-3.244l-0.424-5.21
			L261.752,166.781L261.752,166.781z"/>
	</g>
	<g>
		<polygon fill="#EACC00" points="241.858,155.687 242.946,140.402 250.711,150.419 258.507,140.418 259.593,155.687 		"/>
		<path d="M257.288,144.422l0.694,9.765h-14.513l0.696-9.765l6.522,8.415l0.733-0.888L257.288,144.422 M241.729,136.383
			l-0.557,7.826l-0.696,9.765l-0.229,3.213h3.221h14.513h3.221l-0.228-3.213l-0.694-9.765l-0.554-7.794l-4.804,6.163l-4.208,5.398
			l-4.178-5.391L241.729,136.383L241.729,136.383z"/>
	</g>
	<g>
		<polygon fill="#EACC00" points="240.889,169.543 241.497,161.333 259.925,161.333 260.473,169.543 		"/>
		<path d="M258.522,162.833l0.347,5.21h-16.365l0.386-5.21H258.522 M261.329,159.833h-2.807H242.89h-2.786l-0.206,2.778l-0.386,5.21
			l-0.239,3.222h3.23h16.365h3.207l-0.213-3.199l-0.347-5.21L261.329,159.833L261.329,159.833z"/>
	</g>
	<g>
		<polygon fill="#EACC00" points="240.078,181.353 240.53,175.188 260.933,175.188 261.328,181.361 250.684,195.297 		"/>
		<path d="M259.525,176.689l0.27,4.208l-9.108,11.927l-9.07-11.927l0.308-4.208H259.525 M262.339,173.689h-2.814h-17.601h-2.788
			l-0.204,2.781l-0.308,4.208l-0.083,1.132l0.687,0.903l9.07,11.927l2.383,3.133l2.389-3.128l9.108-11.927l0.681-0.892l-0.072-1.12
			l-0.27-4.208L262.339,173.689L262.339,173.689z"/>
	</g>
	<g>
		<path fill="#EACC00" d="M202.059,153.024v-17.807l1.884,0.499c4.435,1.173,7.027,4.521,7.705,9.948
			c0.226,1.91,0.438,3.705,1.067,5.313l0.801,2.047H202.059z"/>
		<path d="M203.559,137.166c4.671,1.236,6.138,4.979,6.601,8.684c0.232,1.969,0.463,3.898,1.159,5.674h-7.759V137.166
			 M200.559,133.269v3.897v14.358v3h3h7.759h4.397l-1.603-4.094c-0.559-1.427-0.76-3.13-0.973-4.932
			c-0.764-6.115-3.728-9.887-8.813-11.232L200.559,133.269L200.559,133.269z"/>
	</g>
	<g>
		<path fill="#EACC00" d="M287.772,153.024l0.857-2.073c0.66-1.597,0.871-3.385,1.095-5.277c0.678-5.438,3.27-8.785,7.705-9.958
			l1.884-0.498v17.807H287.772z"/>
		<path d="M297.813,137.166v14.358h-7.797c0.734-1.776,0.966-3.705,1.198-5.674C291.676,142.145,293.142,138.402,297.813,137.166
			 M300.813,133.269l-3.767,0.997c-5.085,1.345-8.049,5.118-8.809,11.213c-0.213,1.805-0.411,3.491-0.993,4.9l-1.714,4.146h4.486
			h7.797h3v-3v-14.358V133.269L300.813,133.269z"/>
	</g>
	<g>
		<path fill="#EACC00" d="M218.888,153.71c-0.175-0.251-0.369-0.407-0.672-0.556c-0.3-0.09-0.634-0.13-1.069-0.13h-4.825
			l-0.415-0.829c-0.963-1.924-1.214-4.142-1.458-6.287c-0.516-4.036-1.751-7.921-7.26-9.171l-1.168-0.265v-4.782h6.208
			c0.312,0,0.405-0.062,0.406-0.062c0.058-0.059,0.193-0.193,0.276-0.691c0.392-2.703,1.779-4.78,4.121-6.144
			c1.024-0.58,2.243-1.081,3.54-1.457c1.243-0.339,2.547-0.608,3.9-0.804c0.399-0.908,0.876-1.767,1.455-2.615l0.044-0.065
			l0.271-0.321c0.381-0.454,0.812-0.969,1.298-1.416l1.198-1.103l19.301,24.779l-2.863,41.044L218.888,153.71z M219.597,131.421
			c-0.153-0.276-0.363-0.528-0.609-0.726c-0.553-0.421-1.216-0.636-1.997-0.636c-0.787,0-1.504,0.223-1.966,0.613
			c-0.299,0.229-0.53,0.487-0.682,0.749H219.597z"/>
		<path d="M224.557,119.22l17.947,23.042l-2.547,36.512l-19.878-25.976c-0.347-0.502-0.811-0.811-1.312-1.043
			c-0.464-0.155-0.965-0.231-1.621-0.231h-0.155h-3.743c-0.85-1.699-1.081-3.783-1.313-5.829c-0.578-4.516-2.123-8.993-8.414-10.42
			v-2.085h4.708c0.541,0,1.081-0.115,1.467-0.502c0.347-0.347,0.58-0.81,0.696-1.506c0.347-2.393,1.543-4.014,3.396-5.094
			c0.888-0.502,2.008-0.965,3.204-1.312c1.274-0.348,2.624-0.618,4.053-0.81l0.54-0.04l0.155-0.54
			c0.386-0.925,0.849-1.775,1.428-2.624C223.592,120.262,224.055,119.681,224.557,119.22 M212.514,132.921h8.955l-0.115-0.887
			c-0.116-0.965-0.657-1.891-1.428-2.509c-0.811-0.618-1.777-0.965-2.934-0.965c-1.157,0-2.2,0.348-2.933,0.965
			c-0.811,0.618-1.39,1.544-1.428,2.509L212.514,132.921 M224.922,114.806l-2.397,2.206c-0.558,0.514-1.024,1.069-1.435,1.56
			l-0.21,0.25l-0.102,0.12l-0.089,0.13c-0.469,0.688-0.878,1.382-1.236,2.102c-1.127,0.189-2.216,0.427-3.251,0.709
			c-1.454,0.422-2.783,0.969-3.891,1.595c-2.624,1.529-4.225,3.78-4.793,6.712l-3.997,0.001h-3v3v2.085v2.396l2.336,0.53
			c3.824,0.867,5.478,3.002,6.102,7.876c0.246,2.17,0.524,4.628,1.606,6.79l0.829,1.658h1.853h3.743h0.155
			c0.236,0,0.393,0.015,0.504,0.035l0.003,0.004l0.044,0.058l19.878,25.976l4.823,6.302l0.552-7.917l2.547-36.512l0.08-1.146
			l-0.706-0.906l-17.947-23.042L224.922,114.806L224.922,114.806z"/>
	</g>
	<g>
		<path fill="#EACC00" d="M257.41,141.793l19.186-24.736l1.196,1.021c0.515,0.44,0.918,0.934,1.273,1.369l0.335,0.404l0.045,0.064
			c0.624,0.915,1.074,1.754,1.399,2.61c1.49,0.212,2.792,0.481,3.944,0.807c1.156,0.335,2.262,0.787,3.489,1.425l0.088,0.05
			c2.334,1.419,3.713,3.492,4.101,6.159c0.078,0.468,0.217,0.607,0.27,0.659c0.043,0.043,0.179,0.064,0.406,0.064h6.171v4.781
			l-1.166,0.266c-4.466,1.02-6.624,3.748-7.218,9.123c-0.27,2.373-0.572,4.485-1.553,6.359l-0.421,0.805h-4.806
			c-0.375,0-0.7,0.042-0.992,0.129c-0.304,0.15-0.495,0.302-0.631,0.499l-22.295,29.195L257.41,141.793z M287.002,131.421
			c-0.147-0.275-0.35-0.515-0.596-0.703c-0.558-0.425-1.276-0.659-2.026-0.659c-0.773,0-1.481,0.226-1.994,0.637
			c-0.256,0.204-0.472,0.456-0.632,0.725H287.002z"/>
		<path d="M276.817,119.22c0.54,0.462,0.964,1.042,1.388,1.543c0.58,0.849,1.044,1.699,1.353,2.624l0.23,0.54l0.54,0.04
			c1.43,0.193,2.819,0.462,4.053,0.81c1.198,0.347,2.24,0.811,3.206,1.312c1.775,1.08,3.049,2.701,3.396,5.094
			c0.115,0.695,0.347,1.159,0.694,1.506c0.386,0.386,0.849,0.502,1.466,0.502v0h4.671v2.085c-6.252,1.428-7.875,5.905-8.375,10.42
			c-0.232,2.046-0.502,4.13-1.39,5.829h-3.667h-0.23c-0.579,0-1.081,0.077-1.545,0.231c-0.5,0.232-0.964,0.541-1.311,1.043
			l-19.839,25.976l-2.509-36.513L276.817,119.22 M279.905,132.921h8.955l-0.117-0.887c-0.115-0.965-0.617-1.891-1.428-2.509
			c-0.809-0.618-1.851-0.965-2.934-0.965c-1.117,0-2.161,0.348-2.932,0.965c-0.772,0.618-1.35,1.544-1.468,2.509L279.905,132.921
			 M276.376,114.894l-1.929,2.487l-17.871,23.042l-0.701,0.904l0.078,1.141l2.509,36.513l0.546,7.941l4.831-6.326l19.839-25.976
			l0.043-0.056l0.004-0.005c0.101-0.019,0.237-0.034,0.426-0.034h0.23h3.667h1.816l0.842-1.609c1.1-2.103,1.438-4.455,1.713-6.881
			c0.527-4.764,2.227-6.958,6.062-7.833l2.332-0.533v-2.392v-2.085v-3h-3h-3.958c-0.56-2.829-2.179-5.124-4.709-6.664l-0.087-0.053
			l-0.09-0.047c-1.32-0.685-2.513-1.172-3.754-1.532c-1.018-0.288-2.128-0.53-3.32-0.727c-0.323-0.69-0.725-1.384-1.212-2.098
			l-0.088-0.129l-0.101-0.119c-0.088-0.104-0.176-0.212-0.265-0.321c-0.377-0.461-0.845-1.035-1.462-1.562L276.376,114.894
			L276.376,114.894z"/>
	</g>
</g>
</svg>
