<?xml version="1.0" encoding="utf-8"?>
<!-- Generator: Adobe Illustrator 17.0.0, SVG Export Plug-In . SVG Version: 6.00 Build 0)  -->
<!DOCTYPE svg PUBLIC "-//W3C//DTD SVG 1.1//EN" "http://www.w3.org/Graphics/SVG/1.1/DTD/svg11.dtd">
<svg version="1.1" xmlns="http://www.w3.org/2000/svg" xmlns:xlink="http://www.w3.org/1999/xlink" x="0px" y="0px" width="500px"
	 height="500px" viewBox="0 0 500 500" enable-background="new 0 0 500 500" xml:space="preserve">
<g id="Layer_1">
</g>
<g id="Isolation_Mode">
	<path fill="#231F20" d="M80.924,226.999c-0.692-2.117-2.251-4.293-4.718-3.472c-2.557,0.852-2.406,3.501-1.688,5.611
		c3.307,9.718,6.185,18.151,9.518,27.951c0.721,2.112,1.62,4.487,4.536,3.511c2.763-0.921,2.212-3.412,1.52-5.531
		C86.88,245.234,84.109,236.76,80.924,226.999L80.924,226.999z M91.243,268.603c-7.114,2.382-12.869-0.75-15.106-6.893
		c-4.043-11.233-7.117-19.768-11.136-30.93c-2.372-6.5,1.428-12.634,8.608-15.028c7.442-2.482,13.964,0.209,15.977,6.833
		c3.436,11.182,6.172,20.083,9.657,31.418C101.192,260.413,98.754,266.109,91.243,268.603L91.243,268.603z"/>
	<path fill="#231F20" d="M126.404,258.281c-3.795,0.93-12.916,3.436-15.106,4.094c-1.098,0.316-2.198,0.636-2.72,0.294
		c-0.629-0.396-0.891-1.561-1.178-2.555c-5.398-18.328-9.064-30.772-14.465-49.098c-0.313-1.068,0.073-1.36,3.994-2.484
		c4.444-1.265,4.993-1.318,5.33-0.092c4.531,16.422,8.401,30.459,11.556,41.894c0.277,0.998,0.553,2.326,1.221,2.557
		c0.461,0.119,1.44-0.066,2.236-0.282c1.76-0.478,5.357-1.423,7.122-1.87c1.044-0.262,1.222,0.102,2.042,3.344
		C127.37,257.783,127.346,258.038,126.404,258.281L126.404,258.281z"/>
	<path fill="#231F20" d="M135.791,255.904c-3.878,0.916-4.04,0.969-4.303-0.119c-4.716-19.413-8.037-33.103-12.546-51.669
		c-0.284-1.161,0.051-1.331,4.179-2.307c4.662-1.083,4.949-1.049,5.226,0.189c2.809,12.503,7.17,31.916,11.602,51.642
		C140.213,254.811,140.144,254.889,135.791,255.904L135.791,255.904z"/>
	<path fill="#231F20" d="M170.849,249.076c-3.924,0.636-4.186,0.534-4.39-0.648c-1.857-10.988-4.254-25.195-5.56-31.35
		c-0.461-0.648-1.19-0.282-1.221,0.529c-0.265,4.57-0.643,8.353-1.003,11.17c-0.027,0.811-0.291,1.26-1.622,1.498
		c-1.33,0.245-1.651-0.1-2.025-0.758c-1.117-2.304-2.839-5.952-4.677-10.055c-0.318-0.753-1.381-0.791-1.603-0.099
		c0.954,6.301,3.654,20.21,5.774,31.151c0.24,1.253,0.031,1.445-4.109,2.273c-3.9,0.799-3.846,0.643-4.094-0.532
		c-4.116-19.469-7.039-33.336-10.951-51.868c-0.284-1.321,0.347-1.382,3.798-2.088c3.803-0.767,4.504-0.486,5.862,1.841
		c2.093,3.73,4.067,7.003,5.959,10.456c1.372,2.579,2.761,4.832,3.358,4.725c0.595-0.112,1.042-2.535,1.479-5.604
		c0.665-4.322,1.185-7.561,1.901-11.879c0.374-2.644,0.916-3.23,4.383-3.79c3.822-0.605,4.638-0.639,4.827,0.619
		c1.914,12.592,4.908,32.343,7.945,52.332C175.066,248.26,175.169,248.393,170.849,249.076L170.849,249.076z"/>
	<path fill="#231F20" d="M191.661,203.887c-0.18-1.666-0.43-3.162-1.615-4.227c-0.775-0.556-1.6-0.787-3.006-0.622
		c-1.061,0.124-2.023,0.24-2.336,0.597c-0.223,0.347-0.187,0.663-0.129,1.139c0.957,7.899,0.879,7.265,1.821,15.013
		c0.092,0.789,0.08,1.433,0.707,1.598c0.437,0.027,1.032-0.041,1.877-0.146c0.937-0.107,2.1-0.481,2.923-1.615
		c0.964-1.462,0.75-2.642,0.583-4.142C192.161,208.474,191.979,206.811,191.661,203.887L191.661,203.887z M198.498,221.258
		c-2.472,2.564-5.998,3.584-9.098,3.951c-1.173,0.138-1.782,0.692-1.542,2.668c0.486,4.028,1.522,12.561,2.086,17.223
		c0.16,1.348-0.651,1.352-4.346,1.831c-3.616,0.476-4.089,0.551-4.337-1.183c-2.161-15.611-4.958-35.796-7.066-51.014
		c-0.131-0.942-0.131-1.588,0.17-2.032c0.364-0.609,1.093-0.631,2.161-0.777c2.144-0.289,6.692-0.86,9.101-1.139
		c3.57-0.418,7.246-0.005,10.104,1.712c3.249,1.918,4.839,4.818,5.201,8.775c0.709,7.77,0.248,2.7,0.949,10.385
		C202.175,214.916,201.427,218.175,198.498,221.258L198.498,221.258z"/>
	<path fill="#231F20" d="M214.248,243.952c-3.956,0.294-4.113,0.318-4.211-0.796c-1.605-19.911-2.737-33.958-4.273-52.995
		c-0.095-1.19,0.252-1.311,4.463-1.625c4.749-0.33,5.021-0.257,5.104,1.01c0.811,12.792,2.069,32.649,3.348,52.822
		C218.752,243.569,218.679,243.637,214.248,243.952L214.248,243.952z"/>
	<path fill="#231F20" d="M234.839,207.447c-0.012-0.398-0.231-2.144-0.845-2.122c-0.435,0.012-0.544,2.006-0.532,2.321
		c-0.233,6.221-0.447,10.21-0.6,15.312c-0.068,0.556,0.439,0.622,1.697,0.583c1.088-0.037,1.935,0.102,1.826-0.612
		C235.807,217.05,235.453,213.717,234.839,207.447L234.839,207.447z M243.233,242.765c-2.346,0.037-3.871,0.235-4.06-0.876
		c-0.753-4.439-1.151-7.457-1.926-11.816c-0.109-0.791-1.098-0.607-2.421-0.568c-1.576,0.051-2.411-0.08-2.467,0.719
		c-0.342,4.473-0.556,7.43-0.784,12.056c-0.048,0.879-1.831,0.862-4.417,0.981c-1.209,0.056-4.033,0.202-3.989-0.515
		c1.882-20.907,3.472-34.927,5.65-54.209c0.134-1.122,2.644-1.296,4.618-1.355c2.244-0.073,4.672-0.046,4.881,1.306
		c3.895,20.297,5.952,32.683,9.358,53.437C247.839,242.801,245.413,242.733,243.233,242.765L243.233,242.765z"/>
	<path fill="#231F20" d="M292.809,244.477c-3.946-0.325-4.179-0.488-4.084-1.68c0.838-11.114,1.928-25.481,2.139-31.765
		c-0.294-0.743-1.083-0.563-1.316,0.216c-1.355,4.373-2.625,7.957-3.645,10.599c-0.223,0.782-0.585,1.153-1.928,1.068
		c-1.345-0.08-1.573-0.495-1.78-1.224c-0.529-2.506-1.314-6.459-2.105-10.885c-0.131-0.804-1.148-1.095-1.53-0.478
		c-0.588,6.347-1.311,20.496-1.884,31.622c-0.07,1.277-0.32,1.408-4.521,1.219c-3.955-0.16-3.868-0.301-3.829-1.501
		c0.697-19.884,1.19-34.046,1.855-52.98c0.046-1.348,0.677-1.253,4.172-1.112c3.858,0.17,4.465,0.612,5.226,3.196
		c1.129,4.123,2.251,7.775,3.254,11.58c0.706,2.834,1.503,5.354,2.108,5.393c0.605,0.039,1.615-2.205,2.78-5.08
		c1.678-4.036,2.955-7.056,4.691-11.077c0.993-2.472,1.658-2.911,5.153-2.622c3.851,0.328,4.64,0.491,4.529,1.758
		c-1.173,12.68-3.016,32.577-4.876,52.709C297.095,244.698,297.165,244.851,292.809,244.477L292.809,244.477z"/>
	<path fill="#231F20" d="M307.63,245.863c-3.941-0.442-4.101-0.444-3.985-1.557c2.098-19.872,3.574-33.883,5.58-52.881
		c0.126-1.182,0.493-1.238,4.689-0.765c4.733,0.547,4.988,0.673,4.832,1.93c-1.564,12.724-3.985,32.474-6.457,52.541
		C312.147,246.322,312.052,246.373,307.63,245.863L307.63,245.863z"/>
	<path fill="#231F20" d="M336.968,250.159c-3.827-0.699-13.124-2.134-15.368-2.428c-1.124-0.158-2.246-0.316-2.588-0.843
		c-0.403-0.619-0.163-1.79-0.022-2.817c2.574-18.928,4.322-31.782,6.893-50.712c0.155-1.1,0.619-1.212,4.628-0.639
		c4.54,0.658,5.06,0.838,4.866,2.091c-2.586,16.842-4.793,31.236-6.593,42.959c-0.16,1.022-0.444,2.348,0.066,2.829
		c0.369,0.301,1.331,0.527,2.144,0.656c1.787,0.284,5.444,0.889,7.231,1.204c1.049,0.182,1.063,0.59,0.486,3.883
		C338.048,250.105,337.924,250.324,336.968,250.159L336.968,250.159z"/>
	<path fill="#231F20" d="M360.12,218.435c0.08-0.391,0.262-2.134-0.338-2.266c-0.427-0.083-0.996,1.831-1.059,2.144
		c-1.67,5.995-2.799,9.827-4.14,14.751c-0.194,0.529,0.284,0.707,1.525,0.962c1.073,0.221,1.87,0.549,1.935-0.168
		C358.833,228.004,359.263,224.68,360.12,218.435L360.12,218.435z M360.142,254.75c-2.304-0.515-3.846-0.68-3.773-1.802
		c0.291-4.495,0.604-7.523,0.852-11.942c0.083-0.796-0.925-0.847-2.231-1.115c-1.552-0.323-2.341-0.641-2.579,0.124
		c-1.367,4.271-2.266,7.095-3.56,11.544c-0.252,0.843-1.991,0.415-4.543-0.07c-1.192-0.228-3.985-0.743-3.781-1.425
		c6.69-19.899,11.488-33.172,18.085-51.422c0.391-1.061,2.882-0.651,4.827-0.248c2.212,0.457,4.575,1.044,4.463,2.404
		c-0.886,20.654-1.741,33.188-3.224,54.168C364.637,255.857,362.284,255.226,360.142,254.75L360.142,254.75z"/>
	<path fill="#231F20" d="M389.098,262.1c-2.04-0.58-2.856-0.971-2.878-3.043c-0.153-9.623-0.012-13.952-0.32-24.418
		c-0.053-1.821,0.029-4.847-0.558-4.995c-0.588-0.155-1.003,1.464-1.263,2.465c-2.598,10.019-3.834,14.795-6.578,25.35
		c-0.318,1.234-0.593,1.314-4.699,0.279c-3.948-0.976-3.912-1.119-3.632-2.285c4.672-19.343,8.03-33.268,12.49-51.764
		c0.262-1.081,0.437-1.047,4.303-0.095c3.771,0.947,4.128,1.379,4.269,3.71c0.197,6.794,0.51,15.688,0.869,24.529
		c-0.039,0.818-0.046,2.134,0.449,2.273c0.583,0.16,0.986-1.299,1.221-2.139c2.239-8.137,4.021-14.579,6.461-23.405
		c0.338-1.224,0.641-1.321,5.004-0.083c4.436,1.275,4.495,1.394,4.138,2.61c-3.645,12.372-9.086,30.843-14.708,49.935
		C393.083,263.014,393.095,263.254,389.098,262.1L389.098,262.1z"/>
	<path fill="#231F20" d="M426.735,229.106c0.719-2.108,0.777-4.783-1.69-5.609c-2.547-0.85-4.028,1.355-4.713,3.472
		c-3.188,9.766-5.952,18.233-9.169,28.075c-0.692,2.117-1.399,4.56,1.517,5.529c2.763,0.923,3.822-1.401,4.538-3.511
		C420.553,247.264,423.423,238.826,426.735,229.106L426.735,229.106z M410.017,268.576c-7.122-2.368-9.824-8.321-7.923-14.574
		c3.506-11.41,6.177-20.083,9.659-31.418c2.011-6.624,8.705-9.256,15.883-6.864c7.442,2.481,11.07,8.559,8.703,15.059
		c-3.965,11.012-7.119,19.773-11.138,30.93C422.911,268.006,417.52,271.092,410.017,268.576L410.017,268.576z"/>
	<path fill="#231F20" d="M212.944,313.886c-3.98,0-15.2,0-19.185,0c-1.039,0-1.114-1.593-1.114-3.501
		c0-2.071,0.163-3.902,1.277-3.902c0.794,0,2.146,0,3.341,0c0.558,0,1.032,0.08,1.43-0.16c0.396-0.235,0.396-1.43,0.396-2.387
		c0-14.088,0-18.787,0-32.875c0-0.634,0.085-1.911-0.313-1.911c-0.874,0-2.387,1.433-3.186,1.994
		c-0.639,0.556-1.909,1.986-2.147,0.714c-0.243-1.588-0.476-4.06-0.16-5.731c0.08-0.796,1.831-2.147,3.183-3.261
		c1.277-1.037,1.751-3.904,2.467-4.06c1.991-0.639,6.131-0.639,7.722-0.639c1.037,0,0.874,1.513,0.874,2.387
		c0,16.716,0,25.71,0,43.382c0,0.876,0,1.831,0.238,2.151c0.318,0.396,1.037,0.396,1.355,0.396c1.593,0,2.865,0,3.982,0
		c0.714,0,0.714,1.753,0.714,3.822C213.818,312.053,213.66,313.886,212.944,313.886L212.944,313.886z"/>
	<path fill="#231F20" d="M231.964,271.619c0-3.263-0.398-5.57-3.023-5.57c-2.547,0-2.865,2.622-2.865,5.57c0,3.421,0,5.493,0,8.756
		c0,2.547,0.716,4.538,2.943,4.538c2.389,0,2.945-2.071,2.945-4.699C231.964,277.191,231.964,274.802,231.964,271.619
		L231.964,271.619z M236.983,306.483c-2.868,3.742-9.317,7.246-18.631,7.484c-0.636,0-0.474-2.868-0.474-3.742
		c0-0.877,0-3.824,0.474-3.824c4.618-0.551,8.12-0.711,10.752-3.259c1.51-1.355,2.304-2.545,2.625-4.378
		c0.158-0.716,0.158-1.437,0.158-2.151c0-2.227,0-1.909,0-4.218c0-0.636,0.24-1.513-0.398-1.831c-0.398-0.24-1.355,1.43-5.017,1.43
		c-1.751,0-3.817-0.636-5.645-2.55c-1.833-1.826-3.266-4.531-3.266-7.634c0-4.859,0-6.845,0-11.784
		c0-7.957,4.456-11.859,11.459-11.859c6.767,0,11.386,4.22,11.386,11.859c0,9.873,0,14.406,0,25.151
		C240.404,300.036,239.845,302.743,236.983,306.483L236.983,306.483z"/>
	<path fill="#231F20" d="M256.401,313.886c-6.527,0-11.383-4.701-11.383-11.143c0-1.435,0-3.183,0-4.541
		c0-1.355,1.991-1.59,4.135-1.59c2.387,0,4.621,0.235,4.621,1.513c0,1.513,0,1.989,0,2.945c0,1.989,0.556,4.456,2.708,4.456
		c2.069,0,2.783-2.384,2.783-4.456c0-5.014,0-5.014,0-9.951c0-1.751-0.636-3.742-2.545-3.9c-2.312-0.238-1.595,0.318-2.547,0.714
		c-0.876,0.24-2.149-1.11-3.181-1.831c-0.481-0.238-2.472-2.227-2.154-2.7c4.618-8.28,5.653-9.397,9.077-15.048
		c0.636-1.117,0.553-1.352,0.153-1.906c-0.311-0.483-7.557-0.401-11.216-0.401c-0.801,0-1.039-1.676-1.039-3.902
		c0-2.389,0.16-3.98,1.039-3.98c5.57,0,13.292,0,19.976,0c0.957,0,1.112,0.716,1.112,2.309c0,1.751,0.16,5.808-0.558,7.243
		c-3.023,5.495-4.135,7.246-7.163,12.495c-0.238,0.323-0.473,0.794,0.326,0.954c1.425,0.238,3.021,0.478,4.453,1.753
		c1.831,1.593,2.943,4.138,2.943,8.436c0,5.49,0,6.049,0,11.386C267.939,309.348,263.086,313.886,256.401,313.886L256.401,313.886z"
		/>
	<path fill="#231F20" d="M286.884,291.678c0-2.547-0.719-4.618-3.026-4.618c-2.384,0-2.945,2.071-2.945,4.776c0,3.028,0,5.412,0,8.2
		c0,3.344,0,5.653,3.023,5.653c2.547,0,2.948-2.63,2.948-5.653C286.884,296.77,286.884,294.626,286.884,291.678L286.884,291.678z
		 M283.936,313.886c-7.557,0-11.379-5.252-11.379-12.26c0-9.948,0.075-14.324,0.075-24.988c0-4.383,0.719-7.09,3.511-10.912
		c2.783-3.897,9.225-7.479,18.379-7.642c0.556,0,0.483,2.79,0.483,3.584c0,0.797,0,3.504-0.483,3.504
		c-4.295,0.554-7.952,0.794-10.587,3.421c-1.909,1.833-2.943,3.9-2.943,7.083c0,2.309,0,1.991,0,4.3c0,0.481-0.16,1.275,0.323,1.513
		c0.476,0.474,1.671-1.114,5.408-1.114c1.831,0,3.581,0.556,5.255,2.149c1.833,1.671,3.181,4.458,3.181,8.04
		c0,4.696,0,6.206,0,11.063C295.159,309.108,290.942,313.886,283.936,313.886L283.936,313.886z"/>
</g>
</svg>
